<mxfile host="65bd71144e">
    <diagram id="RfMwpFNDgZjk9a6wWOeu" name="Page-1">
        <mxGraphModel dx="844" dy="629" grid="1" gridSize="10" guides="1" tooltips="1" connect="1" arrows="1" fold="1" page="1" pageScale="1" pageWidth="827" pageHeight="1169" math="0" shadow="0">
            <root>
                <mxCell id="0"/>
                <mxCell id="1" parent="0"/>
                <mxCell id="2" value="A" style="text;html=1;strokeColor=none;fillColor=none;align=center;verticalAlign=middle;whiteSpace=wrap;rounded=0;" vertex="1" parent="1">
                    <mxGeometry x="190" y="190" width="60" height="30" as="geometry"/>
                </mxCell>
                <mxCell id="3" value="B" style="text;html=1;strokeColor=none;fillColor=none;align=center;verticalAlign=middle;whiteSpace=wrap;rounded=0;" vertex="1" parent="1">
                    <mxGeometry x="340" y="190" width="60" height="30" as="geometry"/>
                </mxCell>
                <mxCell id="4" value="" style="endArrow=classic;html=1;exitX=1;exitY=0.5;exitDx=0;exitDy=0;entryX=0;entryY=0.5;entryDx=0;entryDy=0;" edge="1" parent="1" source="2" target="3">
                    <mxGeometry width="50" height="50" relative="1" as="geometry">
                        <mxPoint x="280" y="220" as="sourcePoint"/>
                        <mxPoint x="330" y="170" as="targetPoint"/>
                    </mxGeometry>
                </mxCell>
                <mxCell id="5" value="200" style="text;html=1;strokeColor=none;fillColor=none;align=center;verticalAlign=middle;whiteSpace=wrap;rounded=0;" vertex="1" parent="1">
                    <mxGeometry x="270" y="180" width="60" height="30" as="geometry"/>
                </mxCell>
                <mxCell id="6" value="1000" style="text;html=1;strokeColor=none;fillColor=none;align=center;verticalAlign=middle;whiteSpace=wrap;rounded=0;" vertex="1" parent="1">
                    <mxGeometry x="190" y="210" width="60" height="30" as="geometry"/>
                </mxCell>
                <mxCell id="7" value="2000" style="text;html=1;strokeColor=none;fillColor=none;align=center;verticalAlign=middle;whiteSpace=wrap;rounded=0;" vertex="1" parent="1">
                    <mxGeometry x="340" y="210" width="60" height="30" as="geometry"/>
                </mxCell>
                <mxCell id="8" value="A" style="text;html=1;strokeColor=none;fillColor=none;align=center;verticalAlign=middle;whiteSpace=wrap;rounded=0;" vertex="1" parent="1">
                    <mxGeometry x="160" y="300" width="60" height="30" as="geometry"/>
                </mxCell>
                <mxCell id="9" value="B" style="text;html=1;strokeColor=none;fillColor=none;align=center;verticalAlign=middle;whiteSpace=wrap;rounded=0;" vertex="1" parent="1">
                    <mxGeometry x="310" y="300" width="60" height="30" as="geometry"/>
                </mxCell>
                <mxCell id="10" value="" style="endArrow=classic;html=1;exitX=1;exitY=0.5;exitDx=0;exitDy=0;entryX=0;entryY=0.5;entryDx=0;entryDy=0;" edge="1" parent="1" source="8" target="9">
                    <mxGeometry width="50" height="50" relative="1" as="geometry">
                        <mxPoint x="250" y="330" as="sourcePoint"/>
                        <mxPoint x="300" y="280" as="targetPoint"/>
                    </mxGeometry>
                </mxCell>
                <mxCell id="11" value="100" style="text;html=1;strokeColor=none;fillColor=none;align=center;verticalAlign=middle;whiteSpace=wrap;rounded=0;" vertex="1" parent="1">
                    <mxGeometry x="240" y="290" width="60" height="30" as="geometry"/>
                </mxCell>
                <mxCell id="12" value="1000" style="text;html=1;strokeColor=none;fillColor=none;align=center;verticalAlign=middle;whiteSpace=wrap;rounded=0;" vertex="1" parent="1">
                    <mxGeometry x="160" y="320" width="60" height="30" as="geometry"/>
                </mxCell>
                <mxCell id="13" value="2000" style="text;html=1;strokeColor=none;fillColor=none;align=center;verticalAlign=middle;whiteSpace=wrap;rounded=0;" vertex="1" parent="1">
                    <mxGeometry x="310" y="320" width="60" height="30" as="geometry"/>
                </mxCell>
                <mxCell id="14" value="C" style="text;html=1;strokeColor=none;fillColor=none;align=center;verticalAlign=middle;whiteSpace=wrap;rounded=0;fontFamily=Lucida Console;" vertex="1" parent="1">
                    <mxGeometry x="440" y="300" width="60" height="30" as="geometry"/>
                </mxCell>
                <mxCell id="15" value="" style="endArrow=classic;html=1;fontFamily=Lucida Console;exitX=0;exitY=0.5;exitDx=0;exitDy=0;" edge="1" parent="1" source="14" target="9">
                    <mxGeometry width="50" height="50" relative="1" as="geometry">
                        <mxPoint x="300" y="290" as="sourcePoint"/>
                        <mxPoint x="350" y="240" as="targetPoint"/>
                    </mxGeometry>
                </mxCell>
                <mxCell id="16" value="3000" style="text;html=1;strokeColor=none;fillColor=none;align=center;verticalAlign=middle;whiteSpace=wrap;rounded=0;fontFamily=Lucida Console;" vertex="1" parent="1">
                    <mxGeometry x="440" y="320" width="60" height="30" as="geometry"/>
                </mxCell>
                <mxCell id="18" value="200" style="text;html=1;strokeColor=none;fillColor=none;align=center;verticalAlign=middle;whiteSpace=wrap;rounded=0;" vertex="1" parent="1">
                    <mxGeometry x="370" y="290" width="60" height="30" as="geometry"/>
                </mxCell>
                <mxCell id="19" value="&lt;div style=&quot;color: rgb(212, 212, 212); background-color: rgb(30, 30, 30); font-family: Menlo, Monaco, &amp;quot;Courier New&amp;quot;, monospace; line-height: 18px;&quot;&gt;&lt;div&gt;&lt;span style=&quot;color: #6796e6;&quot;&gt;1.&lt;/span&gt; x = read(A) &lt;/div&gt;&lt;div&gt;&lt;span style=&quot;color: #6796e6;&quot;&gt;2.&lt;/span&gt; x = x - 100 &lt;/div&gt;&lt;div&gt;&lt;span style=&quot;color: #6796e6;&quot;&gt;3.&lt;/span&gt; write(A,x) &lt;/div&gt;&lt;div&gt;&lt;span style=&quot;color: #6796e6;&quot;&gt;4.&lt;/span&gt; x = Read(B)  &lt;/div&gt;&lt;div&gt;&lt;span style=&quot;color: #6796e6;&quot;&gt;5.&lt;/span&gt; x = x+100  &lt;/div&gt;&lt;div&gt;&lt;span style=&quot;color: #6796e6;&quot;&gt;6.&lt;/span&gt; write(B,x) &lt;/div&gt;&lt;br&gt;&lt;/div&gt;" style="whiteSpace=wrap;html=1;aspect=fixed;fontFamily=Lucida Console;align=left;" vertex="1" parent="1">
                    <mxGeometry x="180" y="360" width="130" height="130" as="geometry"/>
                </mxCell>
                <mxCell id="20" value="&lt;div style=&quot;color: rgb(212, 212, 212); background-color: rgb(30, 30, 30); font-family: Menlo, Monaco, &amp;quot;Courier New&amp;quot;, monospace; font-weight: normal; font-size: 12px; line-height: 18px;&quot;&gt;&lt;div&gt;&lt;span style=&quot;color: #6796e6;&quot;&gt;1.&lt;/span&gt;&lt;span style=&quot;color: #d4d4d4;&quot;&gt; x = read(C) &lt;/span&gt;&lt;/div&gt;&lt;div&gt;&lt;span style=&quot;color: #6796e6;&quot;&gt;2.&lt;/span&gt;&lt;span style=&quot;color: #d4d4d4;&quot;&gt; x = x - 200 &lt;/span&gt;&lt;/div&gt;&lt;div&gt;&lt;span style=&quot;color: #6796e6;&quot;&gt;3.&lt;/span&gt;&lt;span style=&quot;color: #d4d4d4;&quot;&gt; write(C,x) &lt;/span&gt;&lt;/div&gt;&lt;div&gt;&lt;span style=&quot;color: #6796e6;&quot;&gt;4.&lt;/span&gt;&lt;span style=&quot;color: #d4d4d4;&quot;&gt; x = Read(B)  &lt;/span&gt;&lt;/div&gt;&lt;div&gt;&lt;span style=&quot;color: #6796e6;&quot;&gt;5.&lt;/span&gt;&lt;span style=&quot;color: #d4d4d4;&quot;&gt; x = x+200  &lt;/span&gt;&lt;/div&gt;&lt;div&gt;&lt;span style=&quot;color: #6796e6;&quot;&gt;6.&lt;/span&gt;&lt;span style=&quot;color: #d4d4d4;&quot;&gt; write(B,x) &lt;/span&gt;&lt;/div&gt;&lt;/div&gt;" style="whiteSpace=wrap;html=1;aspect=fixed;fontFamily=Lucida Console;align=left;" vertex="1" parent="1">
                    <mxGeometry x="380" y="360" width="120" height="120" as="geometry"/>
                </mxCell>
                <mxCell id="21" value="A" style="text;html=1;strokeColor=none;fillColor=none;align=center;verticalAlign=middle;whiteSpace=wrap;rounded=0;" vertex="1" parent="1">
                    <mxGeometry x="230" y="520" width="60" height="30" as="geometry"/>
                </mxCell>
                <mxCell id="22" value="B" style="text;html=1;strokeColor=none;fillColor=none;align=center;verticalAlign=middle;whiteSpace=wrap;rounded=0;" vertex="1" parent="1">
                    <mxGeometry x="380" y="520" width="60" height="30" as="geometry"/>
                </mxCell>
                <mxCell id="23" value="" style="endArrow=classic;html=1;exitX=1;exitY=0.5;exitDx=0;exitDy=0;entryX=0;entryY=0.5;entryDx=0;entryDy=0;" edge="1" parent="1" source="21" target="22">
                    <mxGeometry width="50" height="50" relative="1" as="geometry">
                        <mxPoint x="320" y="550" as="sourcePoint"/>
                        <mxPoint x="370" y="500" as="targetPoint"/>
                    </mxGeometry>
                </mxCell>
                <mxCell id="24" value="100" style="text;html=1;strokeColor=none;fillColor=none;align=center;verticalAlign=middle;whiteSpace=wrap;rounded=0;" vertex="1" parent="1">
                    <mxGeometry x="300" y="510" width="60" height="30" as="geometry"/>
                </mxCell>
                <mxCell id="25" value="1000" style="text;html=1;strokeColor=none;fillColor=none;align=center;verticalAlign=middle;whiteSpace=wrap;rounded=0;" vertex="1" parent="1">
                    <mxGeometry x="230" y="540" width="60" height="30" as="geometry"/>
                </mxCell>
                <mxCell id="26" value="2000" style="text;html=1;strokeColor=none;fillColor=none;align=center;verticalAlign=middle;whiteSpace=wrap;rounded=0;" vertex="1" parent="1">
                    <mxGeometry x="380" y="540" width="60" height="30" as="geometry"/>
                </mxCell>
                <mxCell id="30" style="edgeStyle=none;html=1;entryX=1;entryY=0.25;entryDx=0;entryDy=0;fontFamily=Lucida Console;" edge="1" parent="1" source="27" target="28">
                    <mxGeometry relative="1" as="geometry"/>
                </mxCell>
                <mxCell id="31" style="edgeStyle=none;html=1;entryX=0;entryY=0.25;entryDx=0;entryDy=0;fontFamily=Lucida Console;" edge="1" parent="1" source="27" target="29">
                    <mxGeometry relative="1" as="geometry"/>
                </mxCell>
                <mxCell id="27" value="&lt;div style=&quot;color: rgb(212, 212, 212); background-color: rgb(30, 30, 30); font-family: Menlo, Monaco, &amp;quot;Courier New&amp;quot;, monospace; line-height: 18px;&quot;&gt;&lt;div&gt;&lt;span style=&quot;color: #6796e6;&quot;&gt;1.&lt;/span&gt; x = read(A) &lt;/div&gt;&lt;div&gt;&lt;span style=&quot;color: #6796e6;&quot;&gt;2.&lt;/span&gt; x = x - 100 &lt;/div&gt;&lt;div&gt;&lt;span style=&quot;color: #6796e6;&quot;&gt;3.&lt;/span&gt; write(A,x) &lt;/div&gt;&lt;div&gt;&lt;br&gt;&lt;/div&gt;4. isActive = Read(B)&lt;br&gt;&lt;/div&gt;" style="whiteSpace=wrap;html=1;aspect=fixed;fontFamily=Lucida Console;align=left;" vertex="1" parent="1">
                    <mxGeometry x="260" y="570" width="160" height="160" as="geometry"/>
                </mxCell>
                <mxCell id="28" value="&lt;div style=&quot;border-color: rgb(0, 0, 0); color: rgb(212, 212, 212); font-family: Menlo, Monaco, &amp;quot;Courier New&amp;quot;, monospace; font-size: 12px; font-style: normal; font-variant-ligatures: normal; font-variant-caps: normal; font-weight: 400; letter-spacing: normal; orphans: 2; text-align: left; text-indent: 0px; text-transform: none; widows: 2; word-spacing: 0px; -webkit-text-stroke-width: 0px; text-decoration-thickness: initial; text-decoration-style: initial; text-decoration-color: initial;&quot;&gt;&lt;span style=&quot;border-color: rgb(0, 0, 0); color: rgb(103, 150, 230);&quot;&gt;5.&lt;/span&gt;&lt;span&gt;&amp;nbsp;&lt;/span&gt;x = Read(B)&lt;/div&gt;&lt;div style=&quot;border-color: rgb(0, 0, 0); color: rgb(212, 212, 212); font-family: Menlo, Monaco, &amp;quot;Courier New&amp;quot;, monospace; font-size: 12px; font-style: normal; font-variant-ligatures: normal; font-variant-caps: normal; font-weight: 400; letter-spacing: normal; orphans: 2; text-align: left; text-indent: 0px; text-transform: none; widows: 2; word-spacing: 0px; -webkit-text-stroke-width: 0px; text-decoration-thickness: initial; text-decoration-style: initial; text-decoration-color: initial;&quot;&gt;&lt;span style=&quot;border-color: rgb(0, 0, 0); color: rgb(103, 150, 230);&quot;&gt;6.&lt;/span&gt;&lt;span&gt;&amp;nbsp;&lt;/span&gt;x = x+200&lt;/div&gt;&lt;div style=&quot;border-color: rgb(0, 0, 0); color: rgb(212, 212, 212); font-family: Menlo, Monaco, &amp;quot;Courier New&amp;quot;, monospace; font-size: 12px; font-style: normal; font-variant-ligatures: normal; font-variant-caps: normal; font-weight: 400; letter-spacing: normal; orphans: 2; text-align: left; text-indent: 0px; text-transform: none; widows: 2; word-spacing: 0px; -webkit-text-stroke-width: 0px; text-decoration-thickness: initial; text-decoration-style: initial; text-decoration-color: initial;&quot;&gt;&lt;span style=&quot;border-color: rgb(0, 0, 0); color: rgb(103, 150, 230);&quot;&gt;7.&lt;/span&gt;&lt;span&gt;&amp;nbsp;&lt;/span&gt;write(B,x)&lt;/div&gt;&lt;div style=&quot;border-color: rgb(0, 0, 0); color: rgb(212, 212, 212); font-family: Menlo, Monaco, &amp;quot;Courier New&amp;quot;, monospace; font-size: 12px; font-style: normal; font-variant-ligatures: normal; font-variant-caps: normal; font-weight: 400; letter-spacing: normal; orphans: 2; text-align: left; text-indent: 0px; text-transform: none; widows: 2; word-spacing: 0px; -webkit-text-stroke-width: 0px; text-decoration-thickness: initial; text-decoration-style: initial; text-decoration-color: initial;&quot;&gt;8. commit&lt;/div&gt;" style="whiteSpace=wrap;html=1;aspect=fixed;fontFamily=Lucida Console;" vertex="1" parent="1">
                    <mxGeometry x="140" y="750" width="110" height="110" as="geometry"/>
                </mxCell>
                <mxCell id="29" value="Rollback" style="rounded=0;whiteSpace=wrap;html=1;fontFamily=Lucida Console;" vertex="1" parent="1">
                    <mxGeometry x="414" y="770" width="120" height="60" as="geometry"/>
                </mxCell>
                <mxCell id="32" value="" style="whiteSpace=wrap;html=1;aspect=fixed;fontFamily=Lucida Console;" vertex="1" parent="1">
                    <mxGeometry x="250" y="910" width="390" height="390" as="geometry"/>
                </mxCell>
                <mxCell id="33" value="&lt;p&gt;Current Transaction&lt;br&gt;SET(A =1000)&lt;/p&gt;&lt;p&gt;&lt;br&gt;&lt;/p&gt;&lt;div style=&quot;color: rgb(212, 212, 212); font-family: Menlo, Monaco, &amp;quot;Courier New&amp;quot;, monospace; text-align: left;&quot;&gt;&lt;span style=&quot;color: rgb(103, 150, 230);&quot;&gt;1.&lt;/span&gt;&amp;nbsp;x = read(A)&lt;/div&gt;&lt;div style=&quot;color: rgb(212, 212, 212); font-family: Menlo, Monaco, &amp;quot;Courier New&amp;quot;, monospace; text-align: left;&quot;&gt;&lt;span style=&quot;color: rgb(103, 150, 230);&quot;&gt;3.&lt;/span&gt;&amp;nbsp;write(A,1000)&lt;/div&gt;&lt;div style=&quot;color: rgb(212, 212, 212); font-family: Menlo, Monaco, &amp;quot;Courier New&amp;quot;, monospace; text-align: left;&quot;&gt;&lt;br&gt;&lt;/div&gt;&lt;div&gt;&lt;br&gt;&lt;/div&gt;" style="whiteSpace=wrap;html=1;aspect=fixed;fontFamily=Lucida Console;" vertex="1" parent="1">
                    <mxGeometry x="250" y="910" width="200" height="200" as="geometry"/>
                </mxCell>
                <mxCell id="34" value="&lt;span style=&quot;color: rgb(206, 145, 120); font-family: Menlo, Monaco, &amp;quot;Courier New&amp;quot;, monospace; background-color: rgb(30, 30, 30);&quot;&gt;Dirty Read&lt;br&gt;|&lt;br&gt;&lt;/span&gt;&lt;div style=&quot;color: rgb(212, 212, 212); font-family: Menlo, Monaco, &amp;quot;Courier New&amp;quot;, monospace; text-align: left;&quot;&gt;&lt;span style=&quot;color: rgb(103, 150, 230);&quot;&gt;3.&lt;/span&gt;&amp;nbsp;x = Read(B)&lt;/div&gt;&lt;div style=&quot;color: rgb(212, 212, 212); font-family: Menlo, Monaco, &amp;quot;Courier New&amp;quot;, monospace; text-align: left;&quot;&gt;&lt;span style=&quot;color: rgb(103, 150, 230);&quot;&gt;5.&lt;/span&gt;&amp;nbsp;x = x+500&lt;/div&gt;&lt;div style=&quot;color: rgb(212, 212, 212); font-family: Menlo, Monaco, &amp;quot;Courier New&amp;quot;, monospace; text-align: left;&quot;&gt;&lt;span style=&quot;color: rgb(103, 150, 230);&quot;&gt;6.&lt;/span&gt;&amp;nbsp;write(A,x)&lt;/div&gt;&lt;div style=&quot;color: rgb(212, 212, 212); font-family: Menlo, Monaco, &amp;quot;Courier New&amp;quot;, monospace; text-align: left;&quot;&gt;7. commit&lt;/div&gt;" style="whiteSpace=wrap;html=1;aspect=fixed;fontFamily=Lucida Console;" vertex="1" parent="1">
                    <mxGeometry x="449" y="1109" width="200" height="200" as="geometry"/>
                </mxCell>
                <mxCell id="36" value="&lt;font style=&quot;font-size: 14px;&quot;&gt;READ UNCOMMITED&lt;br&gt;&lt;/font&gt;(Increment A by 500)&lt;br&gt;&lt;br&gt;&lt;br&gt;&lt;br&gt;&lt;div style=&quot;color: rgb(212, 212, 212); background-color: rgb(30, 30, 30); font-family: Menlo, Monaco, &amp;quot;Courier New&amp;quot;, monospace; line-height: 18px;&quot;&gt;&lt;br&gt;&lt;/div&gt;" style="whiteSpace=wrap;html=1;aspect=fixed;fontFamily=Lucida Console;" vertex="1" parent="1">
                    <mxGeometry x="450" y="910" width="200" height="200" as="geometry"/>
                </mxCell>
                <mxCell id="37" value="4. ROLLBACK&lt;br&gt;&lt;br&gt;" style="whiteSpace=wrap;html=1;aspect=fixed;fontFamily=Lucida Console;" vertex="1" parent="1">
                    <mxGeometry x="250" y="1110" width="200" height="200" as="geometry"/>
                </mxCell>
                <mxCell id="38" value="" style="whiteSpace=wrap;html=1;aspect=fixed;fontFamily=Lucida Console;" vertex="1" parent="1">
                    <mxGeometry x="240" y="1480" width="390" height="390" as="geometry"/>
                </mxCell>
                <mxCell id="39" value="&lt;p&gt;Current Transaction&lt;br&gt;SET(A =1000)&lt;/p&gt;&lt;p&gt;&lt;br&gt;&lt;/p&gt;&lt;div style=&quot;color: rgb(212, 212, 212); font-family: Menlo, Monaco, &amp;quot;Courier New&amp;quot;, monospace; text-align: left;&quot;&gt;&lt;span style=&quot;color: rgb(103, 150, 230);&quot;&gt;1.&lt;/span&gt;&amp;nbsp;x = read(A)&lt;/div&gt;&lt;div style=&quot;color: rgb(212, 212, 212); font-family: Menlo, Monaco, &amp;quot;Courier New&amp;quot;, monospace; text-align: left;&quot;&gt;&lt;span style=&quot;color: rgb(103, 150, 230);&quot;&gt;3.&lt;/span&gt;&amp;nbsp;write(A,1000)&lt;/div&gt;&lt;div style=&quot;color: rgb(212, 212, 212); font-family: Menlo, Monaco, &amp;quot;Courier New&amp;quot;, monospace; text-align: left;&quot;&gt;&lt;br&gt;&lt;/div&gt;&lt;div&gt;&lt;br&gt;&lt;/div&gt;" style="whiteSpace=wrap;html=1;aspect=fixed;fontFamily=Lucida Console;" vertex="1" parent="1">
                    <mxGeometry x="240" y="1480" width="200" height="200" as="geometry"/>
                </mxCell>
                <mxCell id="40" value="&lt;span style=&quot;font-family: Menlo, Monaco, &amp;quot;Courier New&amp;quot;, monospace; text-align: left; background-color: initial; color: rgb(103, 150, 230);&quot;&gt;3.&lt;/span&gt;&lt;span style=&quot;color: rgb(212, 212, 212); font-family: Menlo, Monaco, &amp;quot;Courier New&amp;quot;, monospace; text-align: left; background-color: initial;&quot;&gt;&amp;nbsp;x = Read(B)&lt;/span&gt;&lt;span style=&quot;color: rgb(206, 145, 120); font-family: Menlo, Monaco, &amp;quot;Courier New&amp;quot;, monospace; background-color: rgb(30, 30, 30);&quot;&gt;&lt;br&gt;&lt;/span&gt;&lt;div style=&quot;color: rgb(212, 212, 212); font-family: Menlo, Monaco, &amp;quot;Courier New&amp;quot;, monospace; text-align: left;&quot;&gt;&lt;span style=&quot;color: rgb(103, 150, 230);&quot;&gt;5.&lt;/span&gt;&amp;nbsp;x = x+500&lt;/div&gt;&lt;div style=&quot;color: rgb(212, 212, 212); font-family: Menlo, Monaco, &amp;quot;Courier New&amp;quot;, monospace; text-align: left;&quot;&gt;&lt;span style=&quot;color: rgb(103, 150, 230);&quot;&gt;6.&lt;/span&gt;&amp;nbsp;write(A,x)&lt;/div&gt;&lt;div style=&quot;color: rgb(212, 212, 212); font-family: Menlo, Monaco, &amp;quot;Courier New&amp;quot;, monospace; text-align: left;&quot;&gt;7. commit&lt;/div&gt;" style="whiteSpace=wrap;html=1;aspect=fixed;fontFamily=Lucida Console;" vertex="1" parent="1">
                    <mxGeometry x="439" y="1679" width="200" height="200" as="geometry"/>
                </mxCell>
                <mxCell id="41" value="&lt;font style=&quot;font-size: 14px;&quot;&gt;READ COMMITED&lt;br&gt;&lt;/font&gt;(Increment A by 500)&lt;br&gt;&lt;br&gt;&lt;br&gt;&lt;br&gt;&lt;div style=&quot;color: rgb(212, 212, 212); background-color: rgb(30, 30, 30); font-family: Menlo, Monaco, &amp;quot;Courier New&amp;quot;, monospace; line-height: 18px;&quot;&gt;&lt;br&gt;&lt;/div&gt;" style="whiteSpace=wrap;html=1;aspect=fixed;fontFamily=Lucida Console;" vertex="1" parent="1">
                    <mxGeometry x="440" y="1480" width="200" height="200" as="geometry"/>
                </mxCell>
                <mxCell id="42" value="4. ROLLBACK&lt;br&gt;&lt;br&gt;" style="whiteSpace=wrap;html=1;aspect=fixed;fontFamily=Lucida Console;" vertex="1" parent="1">
                    <mxGeometry x="240" y="1680" width="200" height="200" as="geometry"/>
                </mxCell>
                <mxCell id="44" value="&lt;b&gt;Current transaction&lt;br&gt;&lt;/b&gt;&lt;div style=&quot;text-align: left;&quot;&gt;&lt;span style=&quot;background-color: initial;&quot;&gt;&lt;br&gt;&lt;/span&gt;&lt;/div&gt;&lt;div style=&quot;text-align: left;&quot;&gt;&lt;span style=&quot;background-color: initial;&quot;&gt;3. insert new student&lt;/span&gt;&lt;/div&gt;&lt;div style=&quot;text-align: left;&quot;&gt;&lt;span style=&quot;background-color: initial;&quot;&gt;4. commit&lt;/span&gt;&lt;/div&gt;" style="rounded=0;whiteSpace=wrap;html=1;fontFamily=Lucida Console;fontSize=14;" vertex="1" parent="1">
                    <mxGeometry x="240" y="1950" width="190" height="210" as="geometry"/>
                </mxCell>
                <mxCell id="45" value="&lt;b&gt;READ COMMITED:&lt;br&gt;&lt;/b&gt;&lt;br&gt;&lt;blockquote style=&quot;margin: 0 0 0 40px; border: none; padding: 0px;&quot;&gt;&lt;div style=&quot;text-align: left;&quot;&gt;&lt;span style=&quot;background-color: initial;&quot;&gt;1.Real all students&lt;/span&gt;&lt;/div&gt;&lt;span style=&quot;background-color: rgb(42, 37, 47);&quot;&gt;(3- A,B,C)&lt;/span&gt;&lt;div style=&quot;text-align: left;&quot;&gt;&lt;span style=&quot;background-color: initial;&quot;&gt;2. give points to relevant students&lt;/span&gt;&lt;/div&gt;&lt;div style=&quot;text-align: left;&quot;&gt;&lt;span style=&quot;background-color: initial;&quot;&gt;&lt;br&gt;&lt;/span&gt;&lt;/div&gt;&lt;div style=&quot;text-align: left;&quot;&gt;&lt;span style=&quot;background-color: initial;&quot;&gt;5. real all the students&lt;/span&gt;&lt;/div&gt;&lt;span style=&quot;background-color: rgb(42, 37, 47);&quot;&gt;(3- A,B,C,D)&lt;/span&gt;&lt;div style=&quot;text-align: left;&quot;&gt;&lt;span style=&quot;background-color: initial;&quot;&gt;7. update is reviewed for all student&lt;/span&gt;&lt;/div&gt;&lt;div style=&quot;text-align: left;&quot;&gt;&lt;span style=&quot;background-color: initial;&quot;&gt;8. commi&lt;/span&gt;&lt;/div&gt;&lt;/blockquote&gt;" style="rounded=0;whiteSpace=wrap;html=1;fontFamily=Lucida Console;fontSize=14;" vertex="1" parent="1">
                    <mxGeometry x="430" y="1950" width="190" height="210" as="geometry"/>
                </mxCell>
                <mxCell id="46" value="&lt;b&gt;Current transaction&lt;br&gt;&lt;/b&gt;&lt;div style=&quot;text-align: left;&quot;&gt;&lt;span style=&quot;background-color: initial;&quot;&gt;&lt;br&gt;&lt;/span&gt;&lt;/div&gt;&lt;div style=&quot;text-align: left;&quot;&gt;&lt;span style=&quot;background-color: initial;&quot;&gt;3. insert new student&lt;/span&gt;&lt;/div&gt;&lt;div style=&quot;text-align: left;&quot;&gt;&lt;span style=&quot;background-color: initial;&quot;&gt;4. commit&lt;/span&gt;&lt;/div&gt;" style="rounded=0;whiteSpace=wrap;html=1;fontFamily=Lucida Console;fontSize=14;" vertex="1" parent="1">
                    <mxGeometry x="245" y="2240" width="190" height="210" as="geometry"/>
                </mxCell>
                <mxCell id="47" value="&lt;b&gt;REPEATABLE READ:&lt;br&gt;&lt;/b&gt;&lt;span style=&quot;background-color: initial; text-align: left;&quot;&gt;Mty trasaction:&lt;br&gt;&lt;br&gt;1.Read all students&amp;nbsp;&lt;/span&gt;(3- A,B,C)&lt;b&gt;&lt;br&gt;&lt;/b&gt;&lt;blockquote style=&quot;margin: 0 0 0 40px; border: none; padding: 0px;&quot;&gt;&lt;div style=&quot;text-align: left;&quot;&gt;&lt;span style=&quot;background-color: initial;&quot;&gt;2. give points to relevant students&lt;/span&gt;&lt;/div&gt;&lt;div style=&quot;text-align: left;&quot;&gt;&lt;span style=&quot;background-color: initial;&quot;&gt;&lt;br&gt;&lt;/span&gt;&lt;/div&gt;&lt;div style=&quot;text-align: left;&quot;&gt;&lt;span style=&quot;background-color: initial;&quot;&gt;5. real all the students&lt;/span&gt;&lt;/div&gt;&lt;div style=&quot;text-align: left;&quot;&gt;&lt;span style=&quot;background-color: initial;&quot;&gt;7. update is reviewed for all student&lt;/span&gt;&lt;/div&gt;&lt;div style=&quot;text-align: left;&quot;&gt;&lt;span style=&quot;background-color: initial;&quot;&gt;8. commi&lt;/span&gt;&lt;/div&gt;&lt;/blockquote&gt;" style="rounded=0;whiteSpace=wrap;html=1;fontFamily=Lucida Console;fontSize=14;" vertex="1" parent="1">
                    <mxGeometry x="435" y="2240" width="190" height="210" as="geometry"/>
                </mxCell>
                <mxCell id="48" value="5. once the read is made, then the repeated read is taken from the first inistal read.&lt;br&gt;(3- A,B,C)" style="rounded=0;whiteSpace=wrap;html=1;fontFamily=Lucida Console;fontSize=14;" vertex="1" parent="1">
                    <mxGeometry x="690" y="2338" width="190" height="82" as="geometry"/>
                </mxCell>
                <mxCell id="50" value="" style="endArrow=classic;html=1;fontFamily=Lucida Console;fontSize=14;exitX=0;exitY=0.5;exitDx=0;exitDy=0;entryX=1.002;entryY=0.651;entryDx=0;entryDy=0;entryPerimeter=0;" edge="1" parent="1" source="48" target="47">
                    <mxGeometry width="50" height="50" relative="1" as="geometry">
                        <mxPoint x="540" y="2230" as="sourcePoint"/>
                        <mxPoint x="590" y="2180" as="targetPoint"/>
                    </mxGeometry>
                </mxCell>
            </root>
        </mxGraphModel>
    </diagram>
</mxfile>